<?xml version="1.0" encoding="UTF-8" standalone="no"?>
<svg
   version="1.1"
   id="Layer_1"
   x="0px"
   y="0px"
   viewBox="0 0 128 128"
   xml:space="preserve"
   sodipodi:docname="logo_nocircle128x128.svg"
   inkscape:version="1.2-dev (df61a41422, 2021-04-19, custom)"
   width="128"
   height="128"
   inkscape:export-filename="/home/loki/src/github.com/p9c/p9/pkg/gui/logo/logo_nocircle1024x1024.png"
   inkscape:export-xdpi="96"
   inkscape:export-ydpi="96"
   xmlns:inkscape="http://www.inkscape.org/namespaces/inkscape"
   xmlns:sodipodi="http://sodipodi.sourceforge.net/DTD/sodipodi-0.dtd"
   xmlns="http://www.w3.org/2000/svg"
   xmlns:svg="http://www.w3.org/2000/svg"
   xmlns:rdf="http://www.w3.org/1999/02/22-rdf-syntax-ns#"
   xmlns:cc="http://creativecommons.org/ns#"
   xmlns:dc="http://purl.org/dc/elements/1.1/"><metadata
   id="metadata3783"><rdf:RDF><cc:Work
       rdf:about=""><dc:format>image/svg+xml</dc:format><dc:type
         rdf:resource="http://purl.org/dc/dcmitype/StillImage" /></cc:Work></rdf:RDF></metadata>
    <defs
   id="defs3781">
	
	
</defs>
    <sodipodi:namedview
   pagecolor="#ffffff"
   bordercolor="#666666"
   borderopacity="1"
   objecttolerance="10"
   gridtolerance="10"
   guidetolerance="10"
   inkscape:pageopacity="0"
   inkscape:pageshadow="2"
   inkscape:window-width="3840"
   inkscape:window-height="2132"
   id="namedview3779"
   showgrid="false"
   inkscape:zoom="1.4142136"
   inkscape:cx="-281.78204"
   inkscape:cy="112.42998"
   inkscape:window-x="0"
   inkscape:window-y="0"
   inkscape:window-maximized="1"
   inkscape:current-layer="Layer_1"
   fit-margin-top="0"
   fit-margin-left="0"
   fit-margin-right="0"
   fit-margin-bottom="0"
   inkscape:pagecheckerboard="false"
   inkscape:document-rotation="0"
   width="64px"
   scale-x="2" />
    <style
   type="text/css"
   id="style3768">
	.st0{fill:#FFFFFF;}
</style>

    <rect
   style="fill:#303030;fill-opacity:1;stroke-width:0.0620191"
   id="rect872"
   width="128"
   height="128"
   x="0"
   y="0"
   inkscape:export-xdpi="96"
   inkscape:export-ydpi="96" />
    <path
   style="fill:#cfcfcf;fill-opacity:1;stroke-width:1.6"
   d="m 71.52031,24.55936 c -4.64,0 -8.96,0.96 -12.8,3.2 -3.84,2.4 -6.72187,5.28249 -9.12187,8.96249 -1.28,1.92 -2.23813,4 -2.87813,6.4 -0.64,2.24 -0.95937,4.63751 -0.95937,7.037509 v 28.000001 16.8 c 3.68,3.68 6.7175,6.56128 8.6375,8.48128 v -15.84066 -19.040621 -9.75938 -8.64062 c 0,-4.799999 1.6025,-8.799379 4.9625,-12.159379 3.2,-3.36 7.35937,-4.959381 12.15937,-4.959381 4.8,0 8.79938,1.59938 12.15938,4.959381 3.36,3.36 4.95937,7.35938 4.95937,12.159379 0,4.8 -1.75812,8.80249 -5.27812,12.16249 -3.52,3.36 -7.52063,4.79938 -11.84063,4.95938 v 2.24062 6.71875 c 2.4,0 4.8,-0.31937 7.2,-0.95937 2.08,-0.64 4.32,-1.76063 6.4,-3.04063 3.68,-2.24 6.56,-5.28124 8.8,-9.28124 2.24,-3.84 3.35938,-8.15751 3.35938,-12.63751 0,-4.64 -0.95938,-8.96 -3.35938,-12.8 -2.24,-3.84 -5.12,-6.72187 -8.8,-9.12187 -2.08,-1.28 -4,-2.23813 -6.4,-2.87813 -2.24,-0.64 -4.8,-0.96249 -7.2,-0.962489 z m -0.15937,17.44062 c -4.48,0 -8.1625,3.67938 -8.1625,8.15938 0,4.64 3.5225,8.32249 8.1625,8.16249 4.48,0 8.15937,-3.68249 8.15937,-8.16249 0,-4.48 -3.67937,-8.15938 -8.15937,-8.15938 z m -40.64063,4.95938 v 12.8 21.6 c 1.76,1.92 4.80063,4.80062 8.64063,8.64062 V 46.95936 h -6.88125 z"
   id="rect3819-7"
   inkscape:connector-curvature="0"
   sodipodi:nodetypes="scccsccccccscssssccccccscccssscssccccccc" /></svg>
