<?xml version="1.0" encoding="UTF-8" standalone="no"?>
<svg
        xmlns:dc="http://purl.org/dc/elements/1.1/"
        xmlns:cc="http://creativecommons.org/ns#"
        xmlns:rdf="http://www.w3.org/1999/02/22-rdf-syntax-ns#"
        xmlns:svg="http://www.w3.org/2000/svg"
        xmlns:sodipodi="http://sodipodi.sourceforge.net/DTD/sodipodi-0.dtd"
        xmlns:inkscape="http://www.inkscape.org/namespaces/inkscape"
        xmlns="http://www.w3.org/2000/svg"
        version="1"
        viewBox="0 0 48 48"
        enable-background="new 0 0 48 48"
        id="svg18"
        sodipodi:docname="ic_LinkOff_128px.svg"
        inkscape:version="1.0.1 (3bc2e813f5, 2020-09-07)">
    <metadata
            id="metadata24">
        <rdf:RDF>
            <cc:Work
                    rdf:about="">
                <dc:format>image/svg+xml</dc:format>
                <dc:type
                        rdf:resource="http://purl.org/dc/dcmitype/StillImage"/>
            </cc:Work>
        </rdf:RDF>
    </metadata>
    <defs
            id="defs22"/>
    <sodipodi:namedview
            pagecolor="#ffffff"
            bordercolor="#666666"
            borderopacity="1"
            objecttolerance="10"
            gridtolerance="10"
            guidetolerance="10"
            inkscape:pageopacity="0"
            inkscape:pageshadow="2"
            inkscape:window-width="1660"
            inkscape:window-height="1534"
            id="namedview20"
            showgrid="false"
            inkscape:zoom="21"
            inkscape:cx="14.166667"
            inkscape:cy="24"
            inkscape:window-x="0"
            inkscape:window-y="0"
            inkscape:window-maximized="0"
            inkscape:current-layer="svg18"
            inkscape:document-rotation="0"/>
    <path
            id="path2"
            style="fill:#000000;stroke:none"
            d="M 19.5 4 L 16 6 L 22.099609 14.099609 L 23.400391 13.300781 L 19.5 4 z M 28.5 4 L 24.599609 13.300781 L 25.900391 14.099609 L 32 6 L 28.5 4 z M 10 13 C 4.5 13 0 17.5 0 23 C 0 28.5 4.5 33 10 33 L 13 33 C 17.1 33 20.599219 30.5 22.199219 27 L 17.5 27 C 16.4 28.2 14.8 29 13 29 L 10 29 C 6.7 29 4 26.3 4 23 C 4 19.7 6.7 17 10 17 L 13 17 C 14.8 17 16.4 17.8 17.5 19 L 22.199219 19 C 20.699219 15.5 17.1 13 13 13 L 10 13 z M 35 13 C 30.9 13 27.400781 15.5 25.800781 19 L 30.5 19 C 31.6 17.8 33.2 17 35 17 L 38 17 C 41.3 17 44 19.7 44 23 C 44 26.3 41.3 29 38 29 L 35 29 C 33.2 29 31.6 28.2 30.5 27 L 25.800781 27 C 27.300781 30.5 30.9 33 35 33 L 38 33 C 43.5 33 48 28.5 48 23 C 48 17.5 43.5 13 38 13 L 35 13 z M 22.099609 33.900391 L 16 42 L 19.5 44 L 23.400391 34.699219 L 22.099609 33.900391 z M 25.900391 33.900391 L 24.599609 34.699219 L 28.5 44 L 32 42 L 25.900391 33.900391 z "/>
</svg>
