<?xml version="1.0" encoding="UTF-8" standalone="no"?>
<svg
        xmlns:dc="http://purl.org/dc/elements/1.1/"
        xmlns:cc="http://creativecommons.org/ns#"
        xmlns:rdf="http://www.w3.org/1999/02/22-rdf-syntax-ns#"
        xmlns:svg="http://www.w3.org/2000/svg"
        xmlns:sodipodi="http://sodipodi.sourceforge.net/DTD/sodipodi-0.dtd"
        xmlns:inkscape="http://www.inkscape.org/namespaces/inkscape"
        xmlns="http://www.w3.org/2000/svg"
        viewBox="0 0 128 128"
        width="128"
        height="128"
        version="1.1"
        id="svg8"
        sodipodi:docname="ic_Mine_128px.svg"
        inkscape:version="1.0.1 (3bc2e813f5, 2020-09-07)">
    <metadata
            id="metadata14">
        <rdf:RDF>
            <cc:Work
                    rdf:about="">
                <dc:format>image/svg+xml</dc:format>
                <dc:type
                        rdf:resource="http://purl.org/dc/dcmitype/StillImage"/>
            </cc:Work>
        </rdf:RDF>
    </metadata>
    <defs
            id="defs12"/>
    <sodipodi:namedview
            pagecolor="#ffffff"
            bordercolor="#666666"
            borderopacity="1"
            objecttolerance="10"
            gridtolerance="10"
            guidetolerance="10"
            inkscape:pageopacity="0"
            inkscape:pageshadow="2"
            inkscape:window-width="1918"
            inkscape:window-height="2055"
            id="namedview10"
            showgrid="false"
            inkscape:zoom="6.71875"
            inkscape:cx="30.11898"
            inkscape:cy="5.6177768"
            inkscape:window-x="1898"
            inkscape:window-y="0"
            inkscape:window-maximized="0"
            inkscape:current-layer="svg8"
            inkscape:document-rotation="0"/>
    <style
            id="style2">
        tspan { white-space:pre }
        .shp0 { fill: #303030 }
        .shp1 { fill: #cfcfcf }
    </style>
    <path
            id="path855"
            style="color:#000000;font-style:normal;font-variant:normal;font-weight:normal;font-stretch:normal;font-size:medium;line-height:normal;font-family:sans-serif;font-variant-ligatures:normal;font-variant-position:normal;font-variant-caps:normal;font-variant-numeric:normal;font-variant-alternates:normal;font-variant-east-asian:normal;font-feature-settings:normal;font-variation-settings:normal;text-indent:0;text-align:start;text-decoration:none;text-decoration-line:none;text-decoration-style:solid;text-decoration-color:#000000;letter-spacing:normal;word-spacing:normal;text-transform:none;writing-mode:lr-tb;direction:ltr;text-orientation:mixed;dominant-baseline:auto;baseline-shift:baseline;text-anchor:start;white-space:normal;shape-padding:0;shape-margin:0;inline-size:0;clip-rule:nonzero;display:inline;overflow:visible;visibility:visible;isolation:auto;mix-blend-mode:normal;color-interpolation:sRGB;color-interpolation-filters:linearRGB;solid-color:#000000;solid-opacity:1;vector-effect:none;fill:#000000;fill-opacity:1;fill-rule:nonzero;stroke:#000000;stroke-width:0.692123;stroke-linecap:butt;stroke-linejoin:miter;stroke-miterlimit:4;stroke-dasharray:none;stroke-dashoffset:0;stroke-opacity:1;color-rendering:auto;image-rendering:auto;shape-rendering:auto;text-rendering:auto;enable-background:accumulate;stop-color:#000000"
            d="M 98.224609 5.2773438 C 91.045296 5.4765448 82.241498 8.1425475 73.541016 13.070312 L 71.572266 10.125 C 70.368925 8.3253337 68.037423 7.872896 66.222656 9.0859375 L 63.251953 11.070312 C 61.437171 12.28333 60.964723 14.610427 62.167969 16.410156 L 64.136719 19.355469 C 53.630018 27.56189 46.77073 37.473559 45.570312 45.496094 C 45.346215 47.303019 47.538654 48.440776 48.804688 47.121094 C 56.12473 39.861033 65.036862 32.483515 75.265625 25.646484 C 85.522189 18.672526 95.749282 13.258286 105.06445 9.5175781 C 106.79584 8.7153904 106.5545 6.3918357 104.79883 5.9082031 C 102.83045 5.418845 100.61771 5.2109434 98.224609 5.2773438 z M 33.994141 19.400391 L 30.138672 21.966797 L 26.480469 22.976562 L 31.970703 29.525391 L 36.320312 35.710938 L 34.683594 26.597656 L 33.994141 19.400391 z M 48.392578 22.009766 L 43.828125 22.783203 L 40.074219 22.21875 L 42.425781 30.433594 L 43.880859 37.853516 L 46.09375 28.863281 L 48.392578 22.009766 z M 13.068359 26.126953 C 9.9838009 26.324623 4.6848428 28.606207 3.2597656 27.507812 C -0.58039372 24.547964 1.393648 27.254812 0.83789062 34.712891 L 0.83789062 127.0918 L 124.93359 127.08008 C 132.65115 127.07931 121.28549 124.0475 114.26953 120.56836 L 106.99609 108.94727 C 113.88519 107.0414 105.08592 103.24515 104.4375 102.79297 L 93.759766 95.347656 C 92.496894 94.234326 83.056479 99.650189 81.521484 91.771484 L 73.316406 91.916016 C 76.629381 85.535351 78.716693 76.918399 73.847656 71.921875 L 61.880859 65.339844 C 61.4599 62.974034 53.237298 58.34915 50.992188 57.375 L 41.953125 56.841797 C 35.821213 56.899827 42.612874 45.832105 36.404297 47.158203 L 33.292969 48.152344 C 30.582077 46.864124 33.951093 35.946318 32.126953 35.111328 L 15.330078 27.662109 C 15.414408 26.377006 14.470431 26.037103 13.068359 26.126953 z M 83.085938 27.166016 C 81.463924 28.131812 79.979908 29.125815 78.330078 30.228516 C 76.680284 31.331274 75.194256 32.323719 73.681641 33.453125 L 97.09375 68.464844 C 98.1599 70.237844 100.49139 70.690267 102.44336 69.503906 L 105.41211 67.519531 C 107.2269 66.306512 107.72724 63.840453 106.49609 62.177734 L 83.085938 27.166016 z M 68.125 38.296875 L 61.630859 43.851562 L 55.486328 48.259766 L 64.583984 46.535156 L 71.773438 45.775391 L 69.171875 41.947266 L 68.125 38.296875 z M 73.539062 53.703125 L 65.009766 54.251953 L 57.449219 54.095703 L 65.763672 58.171875 L 71.972656 61.875 L 72.1875 57.25 L 73.539062 53.703125 z "/>
</svg>
