<?xml version="1.0" encoding="UTF-8" standalone="no"?>
<svg
        xmlns:dc="http://purl.org/dc/elements/1.1/"
        xmlns:cc="http://creativecommons.org/ns#"
        xmlns:rdf="http://www.w3.org/1999/02/22-rdf-syntax-ns#"
        xmlns:svg="http://www.w3.org/2000/svg"
        xmlns:sodipodi="http://sodipodi.sourceforge.net/DTD/sodipodi-0.dtd"
        xmlns:inkscape="http://www.inkscape.org/namespaces/inkscape"
        xmlns="http://www.w3.org/2000/svg"
        viewBox="0 0 86.325579 86.325579"
        width="86.325577"
        height="86.325577"
        version="1.1"
        id="svg8"
        sodipodi:docname="ic_ParallelCoin_128px.svg"
        inkscape:version="1.0.1 (3bc2e813f5, 2020-09-07)">
    <metadata
            id="metadata14">
        <rdf:RDF>
            <cc:Work
                    rdf:about="">
                <dc:format>image/svg+xml</dc:format>
                <dc:type
                        rdf:resource="http://purl.org/dc/dcmitype/StillImage"/>
                <dc:title></dc:title>
            </cc:Work>
        </rdf:RDF>
    </metadata>
    <defs
            id="defs12"/>
    <sodipodi:namedview
            pagecolor="#ffffff"
            bordercolor="#666666"
            borderopacity="1"
            objecttolerance="10"
            gridtolerance="10"
            guidetolerance="10"
            inkscape:pageopacity="0"
            inkscape:pageshadow="2"
            inkscape:window-width="1920"
            inkscape:window-height="1028"
            id="namedview10"
            showgrid="false"
            inkscape:zoom="3.359375"
            inkscape:cx="-14.212359"
            inkscape:cy="19.114811"
            inkscape:window-x="-6"
            inkscape:window-y="-6"
            inkscape:window-maximized="1"
            inkscape:current-layer="svg8"
            fit-margin-top="0"
            lock-margins="true"
            fit-margin-left="0"
            fit-margin-right="0"
            fit-margin-bottom="0"/>
    <style
            id="style2">
        tspan { white-space:pre }
        .shp0 { fill: #303030 }
        .shp1 { fill: #cfcfcf }
    </style>
    <path
            id="path4"
            style="stroke-width:0.674419"
            d="M 51.322266 3.0019531 C 46.682266 3.0019531 42.363438 3.963125 38.523438 6.203125 C 34.683437 8.603125 31.802344 11.482109 29.402344 15.162109 C 28.122344 17.082109 27.163438 19.1625 26.523438 21.5625 C 25.883437 23.8025 25.5625 26.203516 25.5625 28.603516 L 25.5625 73.402344 C 29.2425 77.082344 32.283125 79.962812 34.203125 81.882812 L 34.203125 28.603516 C 34.203125 23.803516 35.802109 19.803359 39.162109 16.443359 C 42.362109 13.083359 46.522266 11.482422 51.322266 11.482422 C 56.122266 11.482422 60.122422 13.083359 63.482422 16.443359 C 66.842422 19.803359 68.443359 23.803516 68.443359 28.603516 C 68.443359 33.403516 66.682109 37.403672 63.162109 40.763672 C 59.642109 44.123672 55.642266 45.562656 51.322266 45.722656 L 51.322266 54.683594 C 53.722266 54.683594 56.123438 54.362656 58.523438 53.722656 C 60.603437 53.082656 62.841875 51.963594 64.921875 50.683594 C 68.601875 48.443594 71.482656 45.402344 73.722656 41.402344 C 75.962656 37.562344 77.082031 33.243672 77.082031 28.763672 C 77.082031 24.123672 76.122656 19.802891 73.722656 15.962891 C 71.482656 12.122891 68.601875 9.24375 64.921875 6.84375 C 62.841875 5.56375 60.923437 4.6028906 58.523438 3.9628906 C 56.283437 3.3228906 53.722266 3.0019531 51.322266 3.0019531 z M 51.162109 20.443359 C 46.682109 20.443359 43.001953 24.123516 43.001953 28.603516 C 43.001953 33.243516 46.522109 36.923672 51.162109 36.763672 C 55.642109 36.763672 59.322266 33.083516 59.322266 28.603516 C 59.322266 24.123516 55.642109 20.443359 51.162109 20.443359 z M 10.523438 25.402344 L 10.523438 59.802734 C 12.283438 61.722734 15.322109 64.603359 19.162109 68.443359 L 19.162109 25.402344 L 10.523438 25.402344 z "/>
</svg>
