<?xml version="1.0" encoding="UTF-8" standalone="no"?>
<svg
   xmlns:dc="http://purl.org/dc/elements/1.1/"
   xmlns:cc="http://creativecommons.org/ns#"
   xmlns:rdf="http://www.w3.org/1999/02/22-rdf-syntax-ns#"
   xmlns:svg="http://www.w3.org/2000/svg"
   xmlns="http://www.w3.org/2000/svg"
   xmlns:sodipodi="http://sodipodi.sourceforge.net/DTD/sodipodi-0.dtd"
   xmlns:inkscape="http://www.inkscape.org/namespaces/inkscape"
   viewBox="0 0 35.999999 35.999999"
   version="1.1"
   id="svg24"
   sodipodi:docname="wiki.svg"
   width="36"
   height="36"
   inkscape:version="1.0.1 (3bc2e813f5, 2020-09-07)">
  <metadata
     id="metadata30">
    <rdf:RDF>
      <cc:Work
         rdf:about="">
        <dc:format>image/svg+xml</dc:format>
        <dc:type
           rdf:resource="http://purl.org/dc/dcmitype/StillImage" />
        <dc:title></dc:title>
      </cc:Work>
    </rdf:RDF>
  </metadata>
  <defs
     id="defs28" />
  <sodipodi:namedview
     pagecolor="#ffffff"
     bordercolor="#666666"
     borderopacity="1"
     objecttolerance="10"
     gridtolerance="10"
     guidetolerance="10"
     inkscape:pageopacity="0"
     inkscape:pageshadow="2"
     inkscape:window-width="1920"
     inkscape:window-height="1017"
     id="namedview26"
     showgrid="false"
     inkscape:zoom="18.55174"
     inkscape:cx="16.474687"
     inkscape:cy="16.339666"
     inkscape:window-x="-8"
     inkscape:window-y="-8"
     inkscape:window-maximized="1"
     inkscape:current-layer="svg24" />
  <g
     transform="matrix(0.27715524,0,0,0.27715524,-171.38134,-29.622928)"
     id="g22">
    <path
       transform="matrix(1.4138,0,0,1.4138,-272.18,-544.05)"
       d="m 721.12,506.35 c 0,25.014 -20.278,45.293 -45.293,45.293 -25.015,0 -45.293,-20.278 -45.293,-45.293 0,-25.015 20.278,-45.293 45.293,-45.293 25.015,0 45.293,20.278 45.293,45.293 z"
       fill="#00a9eb"
       fill-rule="evenodd"
       id="path2" />
    <path
       d="m 634.2,202.31 v -54.545 l 6.2217,-0.8178 41.312,-5.4303 45.061,5.559 5.5859,0.68912 v 54.545 l -40.786,-5.4545 c -0.12263,3.0124 -3.7857,5.4545 -8.3043,5.4545 -4.5186,0 -8.1817,-2.442 -8.1817,-5.4545 -13.071,1.7709 -27.398,3.6584 -40.909,5.4545"
       fill="none"
       stroke="#ffffff"
       stroke-linecap="round"
       stroke-linejoin="round"
       stroke-width="2.7272"
       id="path4" />
    <g
       fill="#00a9eb"
       stroke="#ffffff"
       stroke-linecap="round"
       stroke-linejoin="round"
       stroke-width="2.5"
       id="g18">
      <g
         transform="matrix(1.2097,0,0,1.0892,7.9737,22.346)"
         id="g10">
        <path
           d="m 558.25,109.14 c 0,0 -3.0418,-3.2531 -7.0588,-2.521 -4.0116,0.73113 -11.421,3.8517 -15.382,4.822 -4.1537,1.0176 -13.158,1.4144 -13.158,1.4144 l 0.40093,47.094 c 0,0 9.0506,-0.65837 13.204,-1.676 3.9606,-0.97028 11.37,-4.0908 15.382,-4.822 4.0171,-0.73211 6.9696,2.7393 6.9696,2.7393 z"
           id="path6" />
        <path
           d="m 558.25,109.14 c 0,0 3.0418,-3.2531 7.0588,-2.521 4.0116,0.73113 11.421,3.8517 15.382,4.822 4.1537,1.0176 13.158,1.4144 13.158,1.4144 l -0.40093,47.094 c 0,0 -9.0506,-0.65837 -13.204,-1.676 -3.9606,-0.97028 -11.37,-4.0908 -15.382,-4.822 -4.0171,-0.73211 -6.2542,2.7393 -6.2542,2.7393 z"
           id="path8" />
      </g>
      <g
         transform="matrix(1.078,0,0,1.078,20.346,-219.36)"
         id="g16">
        <path
           d="m 615,331.84 c 0,0 -3.0418,-3.2531 -7.0588,-2.521 -4.0116,0.73113 -11.421,3.8517 -15.382,4.822 -4.1537,1.0176 -13.158,1.4144 -13.158,1.4144 l 0.40093,47.094 c 0,0 9.0506,-0.65837 13.204,-1.676 3.9606,-0.97028 11.37,-4.0908 15.382,-4.822 4.0171,-0.73211 6.9696,2.7393 6.9696,2.7393 z"
           id="path12" />
        <path
           d="m 615,331.84 c 0,0 3.0418,-3.2531 7.0588,-2.521 4.0116,0.73113 11.421,3.8517 15.382,4.822 4.1537,1.0176 13.158,1.4144 13.158,1.4144 l -0.40093,47.094 c 0,0 -9.0506,-0.65837 -13.204,-1.676 -3.9606,-0.97028 -11.37,-4.0908 -15.382,-4.822 -4.0171,-0.73211 -6.2542,2.7393 -6.2542,2.7393 z"
           id="path14" />
      </g>
    </g>
    <path
       d="m 700.84,143.67 c -2.6596,1.9895 -1.6698,4.1865 -0.0468,6.5739 0.65358,1.1396 0.69335,2.3824 0.77867,3.0591 -0.13829,1.7516 -0.8444,9.1181 -0.89615,20.533 -0.004,0.68587 0.14646,2.5672 -0.46053,3.0055 -2.5451,1.8381 -2.5,3.2512 -1.9733,4.5155 0.0603,0.1468 1.2872,3.3561 3.5734,3.7902 0.49242,0.0936 -0.77826,-3.2492 -0.6852,-3.7708 0.28125,-1.5763 4.0814,-1.4458 4.4527,-0.68662 0.41465,0.84653 1.0171,3.8604 1.2121,3.62 0.71906,-0.88383 1.9656,-4.8157 0.26993,-6.0306 -2.3917,-1.7133 -2.24,-3.5187 -2.2392,-3.6732 0.0275,-5.0256 0.39083,-15.911 0.57885,-20.883 0.0449,-1.1889 0.41761,-1.8486 0.75637,-2.6228 0.43468,-0.99366 2.1954,-1.3002 2.4991,-2.5112 0.4992,-1.9903 -2.3377,-4.8089 -3.2468,-5.1396 -0.4704,-0.17116 0.96583,3.5773 0.61554,3.9791 -0.62854,0.72035 -3.2089,0.72167 -3.9357,0.21033 -1.003,-0.70539 -0.35936,-3.7274 -1.2521,-3.9692 z"
       fill="#ffffff"
       fill-rule="evenodd"
       id="path20" />
  </g>
</svg>
